<svg width="960" height="640" viewBox="0 0 960 640" fill="none" xmlns="http://www.w3.org/2000/svg">
  <rect width="960" height="640" rx="48" fill="#F4EEE2" />
  <rect x="56" y="56" width="848" height="528" rx="36" fill="white" />
  <circle cx="214" cy="194" r="86" fill="#0F4C5C" fill-opacity="0.12" />
  <circle cx="780" cy="170" r="112" fill="#D97757" fill-opacity="0.18" />
  <circle cx="742" cy="466" r="126" fill="#0F4C5C" fill-opacity="0.08" />
  <rect x="124" y="138" width="286" height="208" rx="28" fill="#0F4C5C" />
  <rect x="440" y="138" width="160" height="20" rx="10" fill="#D7D7D0" />
  <rect x="440" y="186" width="280" height="18" rx="9" fill="#E7E2D8" />
  <rect x="440" y="222" width="234" height="18" rx="9" fill="#E7E2D8" />
  <rect x="440" y="258" width="196" height="18" rx="9" fill="#E7E2D8" />
  <rect x="440" y="298" width="132" height="34" rx="17" fill="#D97757" />
  <rect x="124" y="398" width="692" height="24" rx="12" fill="#EBE5D8" />
  <rect x="124" y="444" width="610" height="18" rx="9" fill="#EFEADF" />
  <rect x="124" y="484" width="478" height="18" rx="9" fill="#EFEADF" />
  <text x="160" y="198" fill="white" font-size="42" font-family="'Noto Sans SC Variable', 'PingFang SC', sans-serif">
    领航工作站
  </text>
  <text x="160" y="252" fill="white" font-size="28" font-family="'Noto Sans SC Variable', 'PingFang SC', sans-serif">
    青年教师主题分享会 · 活动示意图
  </text>
</svg>
